<svg width="16" height="16" viewBox="0 0 16 16" fill="none" xmlns="http://www.w3.org/2000/svg">
<path d="M14.8461 0H1.15393C0.516602 0 0 0.516602 0 1.15393V14.8461C0 15.4834 0.516602 16 1.15393 16H8.54688V9.8125H6.46875V7.39062H8.54688V5.60828C8.54688 3.54138 9.80872 2.41638 11.6525 2.41638C12.5355 2.41638 13.2944 2.48218 13.5156 2.5116V4.67188H12.2443C11.2411 4.67188 11.0469 5.14856 11.0469 5.84814V7.39062H13.4453L13.1328 9.8125H11.0469V16H14.8461C15.4834 16 16 15.4834 16 14.8461V1.15393C16 0.516602 15.4834 0 14.8461 0V0Z" fill="#878787"/>
</svg>
