<svg width="24" height="24" viewBox="0 0 24 24" fill="none" xmlns="http://www.w3.org/2000/svg">
    <path fill-rule="evenodd" clip-rule="evenodd" d="M2 0C0.895431 0 0 0.89543 0 2V22C0 23.1046 0.89543 24 2 24H22C23.1046 24 24 23.1046 24 22V2C24 0.895431 23.1046 0 22 0H2ZM12.1418 2L12.2476 2.11847L12.2479 2.11882L12.2486 2.1196L12.2509 2.1222L12.259 2.13151C12.2659 2.13952 12.2757 2.15111 12.288 2.16611C12.3126 2.1961 12.3473 2.23976 12.3887 2.29564C12.4715 2.40731 12.5815 2.56841 12.6915 2.76746C12.9105 3.16384 13.1347 3.71998 13.1347 4.34052C13.1347 4.96107 12.9105 5.5172 12.6915 5.91359C12.5815 6.11264 12.4715 6.27374 12.3887 6.38541C12.3473 6.44129 12.3126 6.48495 12.288 6.51494C12.2757 6.52994 12.2659 6.54153 12.259 6.54954L12.2509 6.55885L12.2486 6.56145L12.2479 6.56223L12.2476 6.56258L12.1418 6.46817C12.2476 6.56266 12.2476 6.56262 12.2476 6.56258L12.1418 6.68105L12.0359 6.56258L12.0356 6.56223L12.0349 6.56145L12.0327 6.55885L12.0246 6.54954C12.0177 6.54153 12.0079 6.52994 11.9956 6.51494C11.971 6.48495 11.9363 6.44129 11.8949 6.38541C11.8121 6.27374 11.7021 6.11264 11.5921 5.91359C11.3731 5.5172 11.1489 4.96107 11.1489 4.34052C11.1489 3.71998 11.3731 3.16384 11.5921 2.76746C11.7021 2.56841 11.8121 2.40731 11.8949 2.29564C11.9363 2.23976 11.971 2.1961 11.9956 2.16611C12.0079 2.15111 12.0177 2.13952 12.0246 2.13151L12.0327 2.1222L12.0349 2.1196L12.0356 2.11882L12.0359 2.11847L12.1418 2ZM11.0159 10.7323L11.0126 10.8811C11.0126 10.8811 11.0127 10.8811 11.0159 10.7323ZM11.0159 10.7323C11.1648 10.729 11.1648 10.7288 11.1648 10.7287L11.0159 10.7323ZM6.80681 6.37084L6.80739 6.37085L6.80876 6.37088L6.81349 6.37102L6.8307 6.37167C6.84554 6.37229 6.86702 6.37335 6.89453 6.37511C6.94953 6.37862 7.02867 6.38496 7.12699 6.39625C7.32348 6.41881 7.59739 6.46127 7.90865 6.54102C8.52886 6.69994 9.30978 7.01009 9.91768 7.61799C10.5256 8.22589 10.8357 9.0068 10.9946 9.62701C11.0744 9.93828 11.1169 10.2122 11.1394 10.4087C11.1507 10.507 11.157 10.5861 11.1606 10.6411C11.1623 10.6686 11.1634 10.6901 11.164 10.705L11.1646 10.7222L11.1648 10.7269L11.1648 10.7283L11.1648 10.7287L11.1682 10.8845L11.0126 10.8811L11.012 10.8811L11.0106 10.8811L11.0059 10.8809L10.9887 10.8803C10.9738 10.8797 10.9523 10.8786 10.9248 10.8768C10.8698 10.8733 10.7907 10.867 10.6924 10.8557C10.4959 10.8331 10.222 10.7907 9.91072 10.7109C9.29051 10.552 8.5096 10.2419 7.9017 9.63397C7.2938 9.02607 6.98365 8.24515 6.82473 7.62494C6.74498 7.31368 6.70252 7.03977 6.67996 6.84328C6.66867 6.74497 6.66233 6.66582 6.65882 6.61082C6.65706 6.58331 6.656 6.56183 6.65538 6.54699L6.65473 6.52978L6.65459 6.52505L6.65456 6.52368L6.65455 6.52325L6.80344 6.51973L6.80681 6.37084ZM6.80681 6.37084C6.80675 6.37083 6.80669 6.37083 6.80344 6.51973C6.65454 6.52298 6.65455 6.52319 6.65455 6.52325L6.65114 6.36743L6.80681 6.37084ZM13.0484 12.612L13.0478 12.6119L12.8922 12.6085L12.8956 12.7644L12.8956 12.7648L12.8956 12.7662L12.8957 12.7709L12.8964 12.7881C12.897 12.8029 12.8981 12.8244 12.8998 12.8519C12.9033 12.9069 12.9097 12.9861 12.921 13.0844C12.9435 13.2809 12.986 13.5548 13.0657 13.866C13.2247 14.4863 13.5348 15.2672 14.1427 15.8751C14.7506 16.483 15.5315 16.7931 16.1517 16.952C16.463 17.0318 16.7369 17.0743 16.9334 17.0968C17.0317 17.1081 17.1109 17.1144 17.1658 17.118C17.1934 17.1197 17.2148 17.1208 17.2297 17.1214L17.2469 17.122L17.2516 17.1222L17.253 17.1222L17.2536 17.1222L17.4092 17.1256L17.4058 16.9698L17.4058 16.968L17.4056 16.9633L17.405 16.9461C17.4044 16.9312 17.4033 16.9097 17.4016 16.8822C17.398 16.8272 17.3917 16.7481 17.3804 16.6498C17.3579 16.4533 17.3154 16.1794 17.2356 15.8681C17.0767 15.2479 16.7666 14.467 16.1587 13.8591C15.5508 13.2512 14.7699 12.941 14.1497 12.7821C13.8384 12.7024 13.5645 12.6599 13.368 12.6374C13.2697 12.6261 13.1905 12.6197 13.1355 12.6162C13.108 12.6145 13.0865 12.6134 13.0717 12.6128L13.0545 12.6121L13.0498 12.612L13.0484 12.612ZM17.2569 16.9734L17.2536 17.1222C17.2536 17.1222 17.2537 17.1222 17.2569 16.9734ZM12.8956 12.7644L13.0444 12.7608C12.8955 12.7641 12.8956 12.7643 12.8956 12.7644ZM13.0444 12.7608L13.0478 12.6119C13.0478 12.6119 13.0477 12.6119 13.0444 12.7608ZM10.9946 13.8661C10.8357 14.4863 10.5255 15.2672 9.91765 15.8751C9.30975 16.483 8.52883 16.7932 7.90862 16.9521C7.59736 17.0318 7.32345 17.0743 7.12697 17.0969C7.02865 17.1081 6.9495 17.1145 6.8945 17.118C6.867 17.1198 6.84551 17.1208 6.83067 17.1214L6.81346 17.1221L6.80873 17.1222L6.80693 17.1223L6.80343 16.9734L6.65452 16.97L6.65453 16.9694L6.65457 16.9681L6.65471 16.9633L6.65535 16.9461C6.65597 16.9313 6.65703 16.9098 6.65879 16.8823C6.66231 16.8273 6.66864 16.7481 6.67993 16.6498C6.70249 16.4533 6.74495 16.1794 6.82471 15.8682C6.98362 15.248 7.29377 14.467 7.90167 13.8591C8.50957 13.2512 9.29048 12.9411 9.91069 12.7822C10.222 12.7024 10.4959 12.66 10.6924 12.6374C10.7907 12.6261 10.8698 12.6198 10.9248 12.6163C10.9523 12.6145 10.9738 12.6134 10.9886 12.6128L11.0059 12.6122L11.0106 12.612L11.012 12.612L11.0124 12.612L11.0159 12.7609L11.1648 12.7642L11.1648 12.7648L11.1648 12.7662L11.1646 12.7709L11.164 12.7881C11.1633 12.803 11.1623 12.8245 11.1605 12.852C11.157 12.907 11.1507 12.9861 11.1394 13.0844C11.1168 13.2809 11.0744 13.5548 10.9946 13.8661ZM11.1648 12.7642C11.1648 12.7642 11.1648 12.7641 11.0159 12.7609C11.0127 12.612 11.0124 12.612 11.0124 12.612L11.1682 12.6086L11.1648 12.7642ZM6.65452 16.97C6.65452 16.9701 6.65453 16.9701 6.80343 16.9734C6.80668 17.1223 6.80687 17.1223 6.80693 17.1223L6.65112 17.1257L6.65452 16.97ZM17.257 6.51979L17.4059 6.52314C17.4059 6.52308 17.4059 6.52304 17.257 6.51979ZM17.257 6.51979C17.2537 6.37089 17.2535 6.37088 17.2534 6.37088L17.257 6.51979ZM17.2534 6.37088L17.4093 6.36748L17.4059 6.52314L17.4058 6.52373L17.4058 6.5251L17.4057 6.52982L17.405 6.54703C17.4044 6.56188 17.4033 6.58336 17.4016 6.61087C17.3981 6.66586 17.3917 6.74501 17.3804 6.84333C17.3579 7.03981 17.3154 7.31372 17.2357 7.62499C17.0767 8.2452 16.7666 9.02611 16.1587 9.63401C15.5508 10.2419 14.7699 10.5521 14.1497 10.711C13.8384 10.7907 13.5645 10.8332 13.368 10.8558C13.2697 10.867 13.1906 10.8734 13.1356 10.8769C13.1081 10.8787 13.0866 10.8797 13.0717 10.8803L13.0545 10.881L13.0498 10.8811L13.0484 10.8812L13.048 10.8812L13.0445 10.7323L12.8956 10.7289L12.8956 10.7283L12.8956 10.7269L12.8958 10.7222L12.8964 10.705C12.897 10.6902 12.8981 10.6687 12.8998 10.6412C12.9034 10.5862 12.9097 10.507 12.921 10.4087C12.9435 10.2122 12.986 9.93832 13.0658 9.62706C13.2247 9.00685 13.5348 8.22593 14.1427 7.61803C14.7506 7.01013 15.5315 6.69999 16.1518 6.54107C16.463 6.46132 16.7369 6.41885 16.9334 6.39629C17.0317 6.385 17.1109 6.37867 17.1659 6.37515C17.1934 6.37339 17.2149 6.37233 17.2297 6.37171L17.2469 6.37107L17.2516 6.37093L17.253 6.37089L17.2534 6.37088ZM12.8956 10.7289C12.8956 10.729 12.8956 10.729 13.0445 10.7323C13.0477 10.8812 13.0479 10.8812 13.048 10.8812L12.8922 10.8846L12.8956 10.7289ZM9.92468 11.4064C8.87619 11.124 7.55774 10.584 6.52418 9.55045C5.49063 8.51689 4.95067 7.19844 4.66826 6.14995C4.52665 5.62415 4.44867 5.16205 4.40604 4.83081C4.38471 4.66509 4.37219 4.53183 4.36498 4.43938C4.36137 4.39315 4.35909 4.3571 4.3577 4.33227L4.35623 4.30357L4.35589 4.29577L4.3558 4.29355L4.35576 4.29247L4.34755 4.064L4.57642 4.07222C4.57633 4.07222 4.57602 4.07221 4.56839 4.28483L4.57642 4.07222L4.57711 4.07225L4.57933 4.07234L4.58712 4.07267L4.61582 4.07415C4.64065 4.07554 4.6767 4.07782 4.72293 4.08143C4.81538 4.08864 4.94864 4.10116 5.11436 4.12249C5.4456 4.16512 5.9077 4.24309 6.4335 4.38471C7.482 4.66712 8.80044 5.20707 9.834 6.24063C10.8676 7.27419 11.4075 8.59263 11.6899 9.64113C11.8315 10.1669 11.9095 10.629 11.9521 10.9603C11.9735 11.126 11.986 11.2593 11.9932 11.3517C11.9968 11.3979 11.9991 11.434 12.0005 11.4588L12.002 11.4875L12.0023 11.4953L12.0024 11.4975L12.0024 11.4986L12.0088 11.6771L12.0153 11.4982C12.0153 11.4983 12.0152 11.4986 12.2279 11.5062L12.0153 11.4982L12.0153 11.4975L12.0154 11.4953L12.0157 11.4875L12.0163 11.4748L12.0172 11.4588C12.0186 11.434 12.0209 11.3979 12.0245 11.3517C12.0317 11.2592 12.0442 11.126 12.0655 10.9603C12.1082 10.629 12.1861 10.1669 12.3278 9.64112C12.6102 8.59263 13.1501 7.27418 14.1837 6.24062C15.2172 5.20706 16.5357 4.66711 17.5842 4.3847C18.11 4.24308 18.5721 4.16511 18.9033 4.12248C19.069 4.10115 19.2023 4.08863 19.2947 4.08142C19.341 4.07781 19.377 4.07553 19.4018 4.07414L19.4305 4.07267L19.4383 4.07233L19.4406 4.07224L19.4416 4.0722L19.6701 4.06399L19.6619 4.29286C19.6619 4.29277 19.6619 4.29246 19.4493 4.28482L19.6619 4.29286L19.6619 4.29354L19.6618 4.29576L19.6614 4.30356L19.66 4.33226C19.6586 4.35709 19.6563 4.39314 19.6527 4.43937C19.6455 4.53182 19.633 4.66508 19.6116 4.8308C19.569 5.16204 19.491 5.62414 19.3494 6.14994C19.067 7.19844 18.527 8.51688 17.4935 9.55044C16.4599 10.584 15.1415 11.124 14.093 11.4064C13.5672 11.548 13.1051 11.626 12.7739 11.6686C12.6081 11.6899 12.4749 11.7024 12.3824 11.7096C12.3362 11.7133 12.3001 11.7155 12.2753 11.7169L12.2466 11.7184L12.2388 11.7187L12.2366 11.7188L12.2355 11.7189L12.0578 11.7252L12.2359 11.7316C12.2358 11.7316 12.2355 11.7316 12.2279 11.9443L12.2359 11.7316L12.2366 11.7317L12.2388 11.7318L12.2466 11.7321L12.2753 11.7336C12.3001 11.735 12.3362 11.7372 12.3824 11.7409C12.4749 11.7481 12.6081 11.7606 12.7738 11.7819C13.1051 11.8245 13.5672 11.9025 14.093 12.0441C15.1415 12.3265 16.4599 12.8665 17.4935 13.9001C18.527 14.9336 19.067 16.2521 19.3494 17.3006C19.491 17.8264 19.569 18.2885 19.6116 18.6197C19.6329 18.7854 19.6455 18.9187 19.6527 19.0111C19.6563 19.0574 19.6586 19.0934 19.66 19.1182L19.6607 19.1311L19.6614 19.1469L19.6618 19.1547L19.6619 19.157L19.6619 19.158L19.6701 19.3865L19.4412 19.3783C19.4413 19.3783 19.4416 19.3783 19.4493 19.1657L19.4412 19.3783L19.4406 19.3783L19.4383 19.3782L19.4305 19.3778L19.4018 19.3764C19.377 19.375 19.341 19.3727 19.2947 19.3691C19.2023 19.3619 19.069 19.3493 18.9033 19.328C18.5721 19.2854 18.11 19.2074 17.5842 19.0658C16.5357 18.7834 15.2172 18.2434 14.1837 17.2099C13.1501 16.1763 12.6101 14.8579 12.3277 13.8094C12.1861 13.2836 12.1081 12.8215 12.0655 12.4902C12.0442 12.3245 12.0317 12.1913 12.0245 12.0988C12.0208 12.0526 12.0186 12.0165 12.0172 11.9917L12.0157 11.963L12.0154 11.9552L12.0153 11.953L12.0152 11.9519L12.0088 11.7738L12.0024 11.9523C12.0024 11.9522 12.0024 11.9519 11.7898 11.9443L12.0024 11.9523L12.0024 11.953L12.0023 11.9552L12.002 11.963L12.0005 11.9917C11.9991 12.0165 11.9968 12.0526 11.9932 12.0988C11.986 12.1912 11.9735 12.3245 11.9522 12.4902C11.9095 12.8215 11.8316 13.2836 11.6899 13.8094C11.4075 14.8579 10.8676 16.1763 9.83401 17.2099C8.80045 18.2434 7.48201 18.7834 6.43351 19.0658C5.90772 19.2074 5.44561 19.2854 5.11438 19.328C4.94865 19.3493 4.81539 19.3619 4.72294 19.3691C4.67671 19.3727 4.64066 19.375 4.61584 19.3763L4.60299 19.377L4.58714 19.3778L4.57934 19.3782L4.57712 19.3782L4.57604 19.3783L4.34756 19.3865L4.35579 19.1576C4.35578 19.1577 4.35577 19.158 4.5684 19.1657L4.35579 19.1576L4.35581 19.1569L4.3559 19.1547L4.35624 19.1469L4.35771 19.1182C4.3591 19.0934 4.36138 19.0573 4.36499 19.0111C4.3722 18.9187 4.38472 18.7854 4.40605 18.6197C4.44868 18.2884 4.52666 17.8263 4.66828 17.3005C4.95068 16.2521 5.49064 14.9336 6.5242 13.9C7.55776 12.8665 8.8762 12.3265 9.9247 12.0441C10.4505 11.9025 10.9126 11.8245 11.2438 11.7819C11.4096 11.7606 11.5428 11.7481 11.6353 11.7408C11.6815 11.7372 11.7175 11.735 11.7424 11.7336L11.7711 11.7321L11.7789 11.7318L11.7811 11.7317L11.7822 11.7316L11.9597 11.7252L11.7818 11.7189C11.7818 11.7189 11.7822 11.7189 11.7898 11.5062L11.7818 11.7189L11.7811 11.7188L11.7789 11.7187L11.7711 11.7184L11.7424 11.7169C11.7175 11.7155 11.6815 11.7133 11.6353 11.7097C11.5428 11.7024 11.4095 11.6899 11.2438 11.6686C10.9126 11.626 10.4505 11.548 9.92468 11.4064ZM11.5595 11.276C11.5526 11.2032 11.5431 11.1154 11.5301 11.0146C11.4894 10.6983 11.4147 10.2555 11.279 9.7518C11.0069 8.74124 10.4937 7.5021 9.53311 6.54152C8.57253 5.58095 7.33339 5.06778 6.32283 4.79559C5.81911 4.65992 5.37632 4.58524 5.06004 4.54453C4.95923 4.53156 4.8714 4.52205 4.79868 4.51512C4.8056 4.58785 4.81511 4.67568 4.82808 4.77649C4.86879 5.09276 4.94347 5.53555 5.07915 6.03928C5.35133 7.04983 5.8645 8.28897 6.82508 9.24955C7.78566 10.2101 9.0248 10.7233 10.0353 10.9955C10.5391 11.1312 10.9819 11.2058 11.2981 11.2465C11.3989 11.2595 11.4868 11.269 11.5595 11.276ZM19.219 18.9354C19.2121 18.8627 19.2026 18.7748 19.1896 18.674C19.1489 18.3577 19.0742 17.9149 18.9385 17.4112C18.6663 16.4007 18.1532 15.1615 17.1926 14.2009C16.232 13.2404 14.9929 12.7272 13.9823 12.455C13.4786 12.3193 13.0358 12.2447 12.7195 12.204C12.6187 12.191 12.5309 12.1815 12.4582 12.1745C12.4651 12.2473 12.4746 12.3351 12.4876 12.4359C12.5283 12.7522 12.6029 13.195 12.7386 13.6987C13.0108 14.7093 13.524 15.9484 14.4846 16.909C15.4451 17.8696 16.6843 18.3827 17.6948 18.6549C18.1986 18.7906 18.6413 18.8653 18.9576 18.906C19.0584 18.9189 19.1463 18.9285 19.219 18.9354ZM11.2982 12.2039C11.399 12.191 11.4868 12.1815 11.5595 12.1745C11.5526 12.2473 11.5431 12.3351 11.5301 12.4359C11.4894 12.7522 11.4147 13.195 11.279 13.6987C11.0069 14.7093 10.4937 15.9484 9.53312 16.909C8.57254 17.8695 7.3334 18.3827 6.32285 18.6549C5.81912 18.7906 5.37633 18.8653 5.06006 18.906C4.95925 18.9189 4.87141 18.9284 4.79869 18.9354C4.80561 18.8626 4.81512 18.7748 4.82809 18.674C4.8688 18.3577 4.94349 17.9149 5.07916 17.4112C5.35134 16.4007 5.86451 15.1615 6.82509 14.2009C7.78567 13.2404 9.02481 12.7272 10.0354 12.455C10.5391 12.3193 10.9819 12.2447 11.2982 12.2039ZM19.219 4.51511C19.1463 4.52204 19.0584 4.53155 18.9576 4.54452C18.6414 4.58523 18.1986 4.65991 17.6948 4.79559C16.6843 5.06777 15.4451 5.58094 14.4846 6.54152C13.524 7.50209 13.0108 8.74124 12.7386 9.75179C12.603 10.2555 12.5283 10.6983 12.4876 11.0146C12.4746 11.1154 12.4651 11.2032 12.4582 11.2759C12.5309 11.269 12.6187 11.2595 12.7195 11.2465C13.0358 11.2058 13.4786 11.1311 13.9823 10.9955C14.9929 10.7233 16.232 10.2101 17.1926 9.24955C18.1532 8.28897 18.6663 7.04983 18.9385 6.03927C19.0742 5.53555 19.1489 5.09276 19.1896 4.77648C19.2026 4.67567 19.2121 4.58784 19.219 4.51511ZM12.4078 18.0864C12.6268 18.4828 12.851 19.0389 12.851 19.6595C12.851 20.28 12.6268 20.8362 12.4078 21.2325C12.2978 21.4316 12.1878 21.5927 12.1051 21.7044C12.0636 21.7602 12.0289 21.8039 12.0043 21.8339L11.995 21.8452L11.9829 21.8596L11.9753 21.8685L11.9673 21.8778L11.965 21.8804L11.9643 21.8812L11.964 21.8815L11.8581 21.7871L11.9589 21.8771L11.964 21.8815L11.8581 22L11.7523 21.8815L11.752 21.8812L11.7513 21.8804L11.749 21.8778L11.7409 21.8685C11.7341 21.8605 11.7242 21.8489 11.7119 21.8339C11.6873 21.8039 11.6526 21.7602 11.6112 21.7044C11.5284 21.5927 11.4184 21.4316 11.3085 21.2325C11.0894 20.8362 10.8652 20.28 10.8652 19.6595C10.8652 19.0389 11.0894 18.4828 11.3085 18.0864C11.4184 17.8874 11.5284 17.7263 11.6112 17.6146C11.6526 17.5587 11.6873 17.5151 11.7119 17.4851C11.7242 17.4701 11.7341 17.4585 11.7409 17.4505L11.749 17.4412L11.7513 17.4386L11.752 17.4378L11.7523 17.4374L11.8581 17.5318L11.964 17.4374L11.9643 17.4378L11.965 17.4386L11.9673 17.4412L11.9753 17.4505C11.9822 17.4585 11.992 17.4701 12.0043 17.4851C12.0289 17.5151 12.0636 17.5587 12.1051 17.6146C12.1878 17.7263 12.2978 17.8874 12.4078 18.0864ZM11.964 17.4374C11.9639 17.4374 11.9639 17.4373 11.8581 17.5318C11.7523 17.4373 11.7523 17.4374 11.7523 17.4374L11.8581 17.319L11.964 17.4374ZM21.8815 11.7523L21.8812 11.752L21.8804 11.7513L21.8778 11.749L21.8685 11.7409L21.8621 11.7355C21.8547 11.7292 21.8453 11.7213 21.8339 11.7119C21.8039 11.6873 21.7602 11.6526 21.7044 11.6112C21.5927 11.5284 21.4316 11.4184 21.2325 11.3084C20.8362 11.0894 20.28 10.8652 19.6595 10.8652C19.0389 10.8652 18.4828 11.0894 18.0864 11.3084C17.8874 11.4184 17.7263 11.5284 17.6146 11.6112C17.5587 11.6526 17.5151 11.6873 17.4851 11.7119C17.4701 11.7242 17.4585 11.734 17.4505 11.7409L17.4412 11.749L17.4386 11.7513L17.4378 11.752L17.4374 11.7523L17.319 11.8581L17.4374 11.964L17.4378 11.9643L17.4386 11.965L17.4412 11.9672L17.4505 11.9753C17.4585 11.9822 17.4701 11.992 17.4851 12.0043C17.5151 12.0289 17.5587 12.0636 17.6146 12.1051C17.7263 12.1878 17.8874 12.2978 18.0864 12.4078C18.4828 12.6268 19.0389 12.851 19.6595 12.851C20.28 12.851 20.8362 12.6268 21.2325 12.4078C21.4316 12.2978 21.5927 12.1878 21.7044 12.1051C21.7602 12.0636 21.8039 12.0289 21.8339 12.0043L21.8528 11.9886L21.8583 11.9839L21.8685 11.9753L21.8778 11.9672L21.8804 11.965L21.8812 11.9643L21.8815 11.964L22 11.8581L21.8815 11.7523ZM21.8815 11.964L21.7871 11.8581L21.8721 11.9533L21.8785 11.9604L21.8815 11.964ZM17.4374 11.964L17.5318 11.8581C17.4373 11.9639 17.4374 11.9639 17.4374 11.964ZM17.5318 11.8581L17.4374 11.7523C17.4374 11.7523 17.4373 11.7523 17.5318 11.8581ZM2 12.1418L2.11847 12.0359C2.11843 12.036 2.11837 12.036 2.21287 12.1418C2.11837 12.2476 2.11843 12.2476 2.11847 12.2476L2 12.1418ZM2.11847 12.2476L2.21287 12.1418L2.11847 12.0359L2.11882 12.0356L2.1196 12.0349L2.1222 12.0326L2.13151 12.0246C2.13952 12.0177 2.15111 12.0079 2.16611 11.9956C2.1961 11.971 2.23976 11.9363 2.29564 11.8948C2.40731 11.8121 2.56841 11.7021 2.76746 11.5921C3.16384 11.3731 3.71998 11.1489 4.34052 11.1489C4.96107 11.1489 5.5172 11.3731 5.91359 11.5921C6.11264 11.7021 6.27374 11.8121 6.38541 11.8948C6.44129 11.9363 6.48495 11.971 6.51494 11.9956C6.52994 12.0079 6.54153 12.0177 6.54954 12.0246L6.55885 12.0326L6.56145 12.0349L6.56223 12.0356L6.56258 12.0359L6.68105 12.1418L6.56258 12.2476L6.56223 12.2479L6.56145 12.2486L6.55885 12.2509L6.54954 12.259C6.54153 12.2659 6.52994 12.2757 6.51494 12.288C6.48495 12.3126 6.44129 12.3473 6.38541 12.3887C6.27374 12.4715 6.11264 12.5815 5.91359 12.6915C5.5172 12.9105 4.96107 13.1347 4.34052 13.1347C3.71998 13.1347 3.16384 12.9105 2.76746 12.6915C2.56841 12.5815 2.40731 12.4715 2.29564 12.3887C2.23976 12.3473 2.1961 12.3126 2.16611 12.288C2.15111 12.2757 2.13952 12.2659 2.13151 12.259L2.1222 12.2509L2.1196 12.2486L2.11882 12.2479L2.11847 12.2476Z" fill="#64727D"/>
</svg>