<svg width="24" height="24" viewBox="0 0 24 24" fill="none" xmlns="http://www.w3.org/2000/svg">
<g clip-path="url(#clip0)">
<path fill-rule="evenodd" clip-rule="evenodd" d="M11.9561 0.375733C12.1645 0.375617 12.3729 0.440476 12.5494 0.57031L12.549 0.57083C12.5491 0.570949 12.5493 0.571069 12.5495 0.571189C12.5499 0.570687 12.5499 0.570705 12.5499 0.570724L12.5506 0.571255L12.5525 0.572668L12.5582 0.576893L12.577 0.590903C12.5927 0.602701 12.6148 0.619402 12.6428 0.640894C12.6988 0.683873 12.7786 0.746055 12.8788 0.82656C13.0791 0.987496 13.3614 1.22209 13.6985 1.5233C14.3714 2.12456 15.2691 2.99727 16.1689 4.08516C17.948 6.23596 19.8401 9.35454 19.8401 12.9538C19.8401 15.1226 19.021 17.2119 17.5485 18.7599C16.3094 20.0625 14.6915 20.8924 12.9555 21.1239V23.0847C12.9555 23.637 12.5077 24.0847 11.9555 24.0847C11.4032 24.0847 10.9555 23.637 10.9555 23.0847V21.1235C9.22036 20.8916 7.60332 20.0619 6.36479 18.7599C4.89228 17.2119 4.07324 15.1226 4.07324 12.9538C4.07324 9.35454 5.96534 6.23596 7.74439 4.08516C8.64425 2.99727 9.54193 2.12456 10.2148 1.5233C10.5519 1.22209 10.8342 0.987496 11.0345 0.82656C11.1347 0.746055 11.2145 0.683873 11.2705 0.640894C11.2927 0.623871 11.3112 0.609853 11.3257 0.598897C11.4976 0.459353 11.7168 0.375732 11.9555 0.375732C11.9557 0.375732 11.9559 0.375733 11.9561 0.375733ZM10.9555 3.56371C10.4465 4.05335 9.86546 4.65876 9.2855 5.3599C7.62285 7.36998 6.07324 10.0405 6.07324 12.9538C6.07324 14.6235 6.70463 16.2153 7.8139 17.3815C8.67948 18.2914 9.77934 18.8837 10.9555 19.0991V3.56371ZM12.9555 19.0996C14.1325 18.8845 15.2332 18.292 16.0994 17.3815C17.2087 16.2153 17.8401 14.6235 17.8401 12.9538C17.8401 10.0405 16.2905 7.36998 14.6278 5.3599C14.0469 4.65766 13.465 4.05145 12.9555 3.56141V19.0996Z" fill="#64727D"/>
</g>
<defs>
<clipPath id="clip0">
<rect width="24" height="24" fill="white"/>
</clipPath>
</defs>
</svg>
