<svg width="24" height="25" viewBox="0 0 24 25" fill="none" xmlns="http://www.w3.org/2000/svg">
<path fill-rule="evenodd" clip-rule="evenodd" d="M11.9571 0.375C12.1655 0.374884 12.3739 0.439744 12.5503 0.569578L12.5499 0.570097C12.5501 0.570216 12.5503 0.570336 12.5504 0.570456C12.5508 0.569954 12.5509 0.569973 12.5509 0.569991L12.5516 0.570523L12.5535 0.571935L12.5592 0.57616L12.578 0.590171C12.5937 0.601969 12.6157 0.61867 12.6437 0.640162C12.6997 0.68314 12.7795 0.745323 12.8797 0.825828C13.08 0.986764 13.3624 1.22136 13.6995 1.52256C14.3723 2.12383 15.27 2.99653 16.1699 4.08443C17.9489 6.23523 19.841 9.35381 19.841 12.9531C19.841 15.1218 19.022 17.2112 17.5495 18.7592C16.3104 20.0618 14.6924 20.8916 12.9564 21.1231V23.0839C12.9564 23.6362 12.5087 24.0839 11.9564 24.0839C11.4041 24.0839 10.9564 23.6362 10.9564 23.0839V21.1228C9.22133 20.8909 7.6043 20.0612 6.36577 18.7592C4.89326 17.2112 4.07422 15.1218 4.07422 12.9531C4.07422 9.35381 5.96632 6.23523 7.74537 4.08443C8.64522 2.99653 9.54291 2.12383 10.2158 1.52256C10.5529 1.22136 10.8352 0.986764 11.0355 0.825828C11.1357 0.745323 11.2155 0.68314 11.2715 0.640162C11.2937 0.623138 11.3122 0.609121 11.3267 0.598165C11.4986 0.458621 11.7177 0.375 11.9564 0.375C11.9566 0.375 11.9569 0.375 11.9571 0.375ZM10.9564 3.56298C10.4475 4.05262 9.86644 4.65802 9.28648 5.35917C7.62383 7.36925 6.07422 10.0397 6.07422 12.9531C6.07422 14.6228 6.70561 16.2146 7.81488 17.3807C8.68045 18.2907 9.78032 18.883 10.9564 19.0984V3.56298ZM12.9564 19.0988C14.1334 18.8838 15.2342 18.2913 16.1004 17.3807C17.2096 16.2146 17.841 14.6228 17.841 12.9531C17.841 10.0397 16.2914 7.36925 14.6288 5.35917C14.0479 4.65692 13.466 4.05072 12.9564 3.56068V19.0988Z" fill="#F7F9FA"/>
</svg>
