<svg width="22" height="22" viewBox="0 0 22 22" fill="none" xmlns="http://www.w3.org/2000/svg">
    <path fill-rule="evenodd" clip-rule="evenodd" d="M6 2C3.79086 2 2 3.79086 2 6V16C2 18.2091 3.79086 20 6 20H16C18.2091 20 20 18.2091 20 16V6C20 3.79086 18.2091 2 16 2H6ZM0 6C0 2.68629 2.68629 0 6 0H16C19.3137 0 22 2.68629 22 6V16C22 19.3137 19.3137 22 16 22H6C2.68629 22 0 19.3137 0 16V6ZM11.4833 7.98924C10.8591 7.89668 10.2216 8.0033 9.66151 8.29392C9.10141 8.58455 8.64721 9.04438 8.36351 9.60802C8.07982 10.1717 7.98107 10.8104 8.08132 11.4334C8.18157 12.0564 8.47571 12.6319 8.9219 13.0781C9.36809 13.5243 9.94361 13.8184 10.5666 13.9187C11.1896 14.0189 11.8283 13.9202 12.392 13.6365C12.9556 13.3528 13.4155 12.8986 13.7061 12.3385C13.9967 11.7784 14.1033 11.1409 14.0108 10.5167C13.9164 9.88005 13.6197 9.2906 13.1645 8.83547C12.7094 8.38034 12.12 8.08365 11.4833 7.98924ZM8.74037 6.51868C9.67386 6.0343 10.7363 5.85661 11.7766 6.01087C12.8378 6.16823 13.8202 6.6627 14.5788 7.42126C15.3373 8.17981 15.8318 9.16222 15.9891 10.2234C16.1434 11.2637 15.9657 12.3261 15.4813 13.2596C14.997 14.1931 14.2306 14.9501 13.2912 15.423C12.3518 15.8958 11.2872 16.0604 10.2489 15.8933C9.21054 15.7262 8.25134 15.236 7.50768 14.4923C6.76403 13.7487 6.2738 12.7895 6.10672 11.7511C5.93964 10.7128 6.10422 9.64824 6.57704 8.70884C7.04987 7.76944 7.80687 7.00305 8.74037 6.51868ZM16.5 4.5C15.9477 4.5 15.5 4.94772 15.5 5.5C15.5 6.05228 15.9477 6.5 16.5 6.5H16.51C17.0623 6.5 17.51 6.05228 17.51 5.5C17.51 4.94772 17.0623 4.5 16.51 4.5H16.5Z" fill="#64727D"/>
</svg>