<svg width="16" height="14" viewBox="0 0 16 14" fill="none" xmlns="http://www.w3.org/2000/svg">
<path d="M5.21251 13.007C10.8732 13.007 13.9688 8.31731 13.9688 4.25075C13.9688 4.11756 13.966 3.98491 13.9601 3.853C14.5609 3.41856 15.0831 2.87643 15.4952 2.25935C14.9438 2.50455 14.3503 2.66939 13.7279 2.74396C14.3632 2.36282 14.851 1.76014 15.0811 1.0417C14.4865 1.39422 13.828 1.65034 13.1269 1.78867C12.5654 1.19049 11.7657 0.816406 10.8804 0.816406C9.18101 0.816406 7.80274 2.19458 7.80274 3.89346C7.80274 4.13508 7.8298 4.36991 7.88255 4.5952C5.32479 4.4665 3.05663 3.24198 1.53893 1.37982C1.27475 1.83454 1.12229 2.36291 1.12229 2.92669C1.12229 3.99427 1.66561 4.937 2.49175 5.4883C1.98686 5.4728 1.51261 5.33419 1.09798 5.10349C1.09752 5.11642 1.09752 5.12899 1.09752 5.14275C1.09752 6.63321 2.15831 7.87764 3.56666 8.15962C3.30798 8.22998 3.03581 8.26787 2.75511 8.26787C2.55715 8.26787 2.36415 8.24842 2.17665 8.21237C2.56844 9.43515 3.70463 10.3249 5.05162 10.3499C3.99826 11.1755 2.67136 11.6673 1.22925 11.6673C0.981204 11.6673 0.736005 11.653 0.495117 11.6246C1.85715 12.4976 3.47447 13.0071 5.2126 13.0071" fill="#878787"/>
</svg>
